<?xml version="1.0" encoding="utf-8"?>
<!-- Generator: Adobe Illustrator 24.0.1, SVG Export Plug-In . SVG Version: 6.00 Build 0)  -->
<svg version="1.1" id="图层_1" xmlns="http://www.w3.org/2000/svg" xmlns:xlink="http://www.w3.org/1999/xlink" x="0px" y="0px"
	 viewBox="0 0 32 24" style="enable-background:new 0 0 32 24;" xml:space="preserve">
<style type="text/css">
	.st0{fill:#FFFFFF;filter:url(#Adobe_OpacityMaskFilter);}
	.st1{mask:url(#a_1_);}
	.st2{fill:url(#SVGID_1_);}
	.st3{fill:url(#SVGID_2_);}
	.st4{fill:url(#SVGID_3_);}
	.st5{fill:url(#SVGID_4_);}
	.st6{fill:url(#SVGID_5_);}
	.st7{fill:#20419A;}
	.st8{fill:#FFFFFF;}
	.st9{fill:#FFFFFF;stroke:#E6E6E6;}
	.st10{fill-rule:evenodd;clip-rule:evenodd;fill:#33A2DB;}
	.st11{fill-rule:evenodd;clip-rule:evenodd;fill:#C9529E;}
	.st12{fill-rule:evenodd;clip-rule:evenodd;fill:#37559A;}
	.st13{fill-rule:evenodd;clip-rule:evenodd;fill:#6BBD45;}
	.st14{fill:none;stroke:#E6E6E6;}
</style>
<defs>
	<filter id="Adobe_OpacityMaskFilter" filterUnits="userSpaceOnUse" x="-4.3" y="-0.6" width="51.5" height="36.7">
		<feColorMatrix  type="matrix" values="1 0 0 0 0  0 1 0 0 0  0 0 1 0 0  0 0 0 1 0"/>
	</filter>
</defs>
<mask maskUnits="userSpaceOnUse" x="-4.3" y="-0.6" width="51.5" height="36.7" id="a_1_">
	<path class="st0" d="M26.4,0H5.6C2.5,0,0,2.5,0,5.6c0,0,0,0,0,0v12.8C0,21.5,2.5,24,5.6,24l0,0h20.8c3.1,0,5.6-2.5,5.6-5.6
		c0,0,0,0,0,0V5.6C32,2.5,29.5,0,26.4,0C26.4,0,26.4,0,26.4,0z"/>
</mask>
<g class="st1">
	
		<linearGradient id="SVGID_1_" gradientUnits="userSpaceOnUse" x1="-288.9047" y1="480.2466" x2="-287.9047" y2="480.2466" gradientTransform="matrix(-12.9348 2.5915 3.7352 8.9742 -5511.6514 -3550.1216)">
		<stop  offset="2.000000e-03" style="stop-color:#83D0F5"/>
		<stop  offset="0.467" style="stop-color:#0F99D6"/>
		<stop  offset="1" style="stop-color:#263680"/>
	</linearGradient>
	<path class="st2" d="M33.5-0.6H-2.1v24.7h35.6V-0.6z"/>
	
		<linearGradient id="SVGID_2_" gradientUnits="userSpaceOnUse" x1="-242.5373" y1="440.5167" x2="-241.5373" y2="440.5167" gradientTransform="matrix(4.4533 11.4306 13.4984 -3.7711 -4836.6387 4432.3384)">
		<stop  offset="0" style="stop-color:#0F99D6"/>
		<stop  offset="1" style="stop-color:#263680"/>
	</linearGradient>
	<path class="st3" d="M47.2,0L33.1,24.3c-1.7,2.9-5.9,2.9-7.6,0L15.8,7.6L20.3,0H47.2z"/>
	
		<linearGradient id="SVGID_3_" gradientUnits="userSpaceOnUse" x1="-351.2962" y1="402.7405" x2="-350.2962" y2="402.7405" gradientTransform="matrix(-0.9831 -6.1766 -7.1469 0.8496 2549.929 -2505.439)">
		<stop  offset="0" style="stop-color:#E3127E"/>
		<stop  offset="5.000000e-03" style="stop-color:#E3127E"/>
		<stop  offset="1" style="stop-color:#6F237F"/>
	</linearGradient>
	<path class="st4" d="M20.3,0l-4.4,7.6L11.5,0H20.3z"/>
	
		<linearGradient id="SVGID_4_" gradientUnits="userSpaceOnUse" x1="-314.0066" y1="426.9547" x2="-313.0066" y2="426.9547" gradientTransform="matrix(-5.9678 -13.2304 -15.478 5.1012 4744.3765 -6319.4819)">
		<stop  offset="0" style="stop-color:#FBBF07"/>
		<stop  offset="0.47" style="stop-color:#EF8A09"/>
		<stop  offset="1" style="stop-color:#E74517"/>
	</linearGradient>
	<path class="st5" d="M11.5,0l4.4,7.6l-4.4,7.6c-1.5,2.7-5.4,2.7-7,0L-4.3,0H11.5z"/>
	
		<linearGradient id="SVGID_5_" gradientUnits="userSpaceOnUse" x1="-227.0375" y1="455.2755" x2="-226.0375" y2="455.2755" gradientTransform="matrix(1.3716 8.1003 9.0447 -1.2284 -3793.3804 2415.7725)">
		<stop  offset="0" style="stop-color:#98C12C"/>
		<stop  offset="0.999" style="stop-color:#0A873C"/>
		<stop  offset="1" style="stop-color:#0A873C"/>
	</linearGradient>
	<path class="st6" d="M6.7,36.1h18.1c2,0,3.3-2.2,2.3-4L18,16.5c-1-1.8-3.6-1.8-4.6,0l-9,15.6C3.4,33.9,4.7,36.1,6.7,36.1z"/>
	<path d="M7.8,6.4l1.5-1.9h13.1l1.9,1.9l-7.5,13.8h-1.9L7.8,6.4z"/>
	<path class="st7" d="M7.8,6.4l1.5-1.9h13.1l1.9,1.9l-7.5,13.8h-1.9L7.8,6.4z"/>
	<path class="st8" d="M21.1,11.7c-0.1,0.3-0.4,0.4-0.7,0.4c-0.3,0-0.6-0.2-0.7-0.4L17,7.1c-0.2-0.4-0.1-0.9,0.3-1.2
		c0.4-0.2,0.9-0.1,1.1,0.3c0,0,0,0,0,0l1.9,3.3l1.9-3.3c0.2-0.4,0.7-0.5,1.1-0.3c0,0,0,0,0,0c0.4,0.2,0.5,0.8,0.3,1.2
		C23.7,7.1,21.1,11.7,21.1,11.7z M16.7,19.3c-0.2,0.4-0.7,0.5-1.1,0.3c-0.1-0.1-0.2-0.2-0.3-0.3l-2.6-4.6c-0.2-0.4-0.1-0.9,0.3-1.2
		c0.4-0.2,0.9-0.1,1.1,0.3c0,0,0,0,0,0l1.9,3.3l1.9-3.3c0.2-0.4,0.7-0.5,1.1-0.3c0,0,0,0,0,0c0.4,0.2,0.5,0.8,0.3,1.2
		C19.3,14.7,16.7,19.3,16.7,19.3z M10.9,11.7L8.3,7.2C8,6.7,8.2,6.2,8.6,6C9,5.8,9.5,5.9,9.7,6.3c0,0,0,0,0,0l1.9,3.3l1.9-3.3
		c0.2-0.4,0.7-0.5,1.1-0.3c0,0,0,0,0,0c0.4,0.2,0.5,0.8,0.3,1.2l-2.6,4.6c-0.2,0.4-0.7,0.5-1.1,0.3C11.1,12,11,11.9,10.9,11.7z
		 M22.8,4.5H9.2c-0.8,0-1.5,0.4-1.9,1.1c-0.4,0.7-0.4,1.5,0,2.2l6.7,12.1c0.4,0.7,1.1,1.1,1.9,1.1c0.8,0,1.5-0.4,1.9-1.1l7-12.1
		c0.4-0.7,0.4-1.5,0-2.2C24.3,4.9,23.6,4.5,22.8,4.5z"/>
</g>
<path class="st9" d="M16,0.5h11.9c2,0,3.6,1.6,3.6,3.6v15.7c0,2-1.6,3.6-3.6,3.6H15.7L16,0.5z"/>
<path class="st10" d="M21.4,12.2l1.9-0.9c0.1-0.1,0.1-0.2,0.1-0.3l-2.7-5c-0.1-0.1-0.2-0.1-0.3-0.1l-2,1.4l-0.3,3.3L21.4,12.2z"/>
<path class="st11" d="M15.9,19.9h2.6c0.1,0,0.2-0.1,0.2-0.2l-0.2-2.5l-2.8-2L15.9,19.9z"/>
<path class="st12" d="M23.3,13l-1.9-0.9l-0.2,0.1l-3,1.4l0.3,3.3l2,1.4c0.1,0.1,0.2,0,0.3-0.1l2.7-5C23.4,13.2,23.4,13.1,23.3,13z"
	/>
<path class="st13" d="M15.7,9.8l0.6-0.4l2.2-1.5l0.2-2.5c0-0.1-0.1-0.2-0.2-0.2h-2.6L15.7,9.8z"/>
<path class="st14" d="M16,0.5h11.9c2,0,3.6,1.6,3.6,3.6v15.7c0,2-1.6,3.6-3.6,3.6H15.7L16,0.5z"/>
</svg>
